<?xml version="1.0" standalone="no"?>
<!DOCTYPE svg PUBLIC "-//W3C//DTD SVG 20010904//EN"
 "http://www.w3.org/TR/2001/REC-SVG-20010904/DTD/svg10.dtd">
<svg version="1.0" xmlns="http://www.w3.org/2000/svg"
 width="1024.000000pt" height="1024.000000pt" viewBox="0 0 1024.000000 1024.000000"
 preserveAspectRatio="xMidYMid meet">

<g transform="translate(0.000000,1024.000000) scale(0.100000,-0.100000)"
fill="#000000" stroke="none">
<path d="M0 5120 l0 -5120 5120 0 5120 0 0 5120 0 5120 -5120 0 -5120 0 0
-5120z m2297 1402 c18 -11 42 -87 49 -151 9 -99 7 -95 82 -114 56 -14 113 -38
204 -85 4 -2 40 25 80 60 40 35 79 67 86 72 8 5 31 -8 63 -34 60 -51 199 -205
199 -222 0 -6 -20 -31 -45 -54 l-45 -43 -33 19 c-83 49 -87 50 -607 50 -551 1
-539 2 -657 -78 -113 -77 -230 -227 -267 -345 -5 -17 -7 -17 -43 1 -21 11 -50
22 -65 26 -16 3 -28 12 -28 19 0 17 65 152 90 187 11 16 20 33 20 39 0 6 -36
50 -80 97 -44 48 -80 91 -80 96 0 5 53 63 118 130 l119 120 29 -15 c16 -8 61
-42 100 -75 l70 -60 40 24 c48 29 145 70 200 84 l41 10 7 60 c8 66 33 158 48
178 12 14 284 18 305 4z m4753 -817 l0 -595 -115 0 -115 0 0 595 0 595 115 0
115 0 0 -595z m2068 113 c-5 -546 -6 -556 -78 -628 -62 -62 -120 -75 -330 -75
-189 0 -208 4 -259 58 l-23 26 -41 -30 c-64 -46 -123 -59 -276 -59 -154 0
-200 9 -253 51 -20 16 -39 29 -42 29 -3 0 -25 -13 -48 -30 -59 -41 -120 -50
-339 -50 l-189 0 0 125 0 125 215 0 215 0 0 63 c0 135 -47 214 -168 282 -48
27 -72 46 -72 59 0 10 28 62 61 117 l62 98 29 -17 c156 -92 260 -235 324 -447
32 -107 46 -130 86 -144 41 -14 226 -14 267 0 19 7 36 22 42 36 5 13 9 90 9
171 l0 147 104 0 105 0 3 -157 c4 -211 -3 -203 192 -203 106 0 147 4 159 14
15 12 17 57 17 467 l0 454 116 0 115 0 -3 -482z m-756 316 c11 -11 27 -33 34
-51 41 -96 -70 -188 -166 -138 -77 40 -78 157 -2 200 35 20 106 14 134 -11z
m-4044 -230 c57 -37 59 -131 4 -175 -22 -17 -36 -20 -76 -16 -65 6 -96 39 -96
100 0 94 89 142 168 91z m-1473 -8 c19 -8 44 -30 55 -48 19 -31 20 -50 20
-366 0 -288 -2 -339 -16 -368 -29 -60 -48 -64 -289 -64 l-216 0 3 -57 3 -58
114 -2 c62 -1 118 -6 123 -11 5 -5 12 -28 15 -51 l6 -41 -307 0 -306 0 1 33
c1 69 3 70 127 68 l112 -2 0 60 0 61 -212 0 c-335 0 -318 -23 -318 433 0 362
1 370 63 407 31 19 54 20 510 20 393 0 484 -3 512 -14z m3631 -99 c61 -31 98
-72 133 -147 24 -51 26 -66 26 -190 0 -161 -17 -227 -76 -294 -89 -101 -246
-109 -424 -21 l-72 36 -37 -25 c-51 -34 -117 -46 -264 -46 -152 1 -205 11
-254 51 l-38 30 -37 -25 c-68 -45 -138 -56 -358 -56 -162 0 -205 3 -222 15
-21 15 -22 13 -32 -37 -26 -118 -114 -229 -231 -288 -85 -43 -154 -60 -275
-66 -199 -10 -346 33 -458 136 -114 104 -157 257 -127 450 13 78 76 286 90
295 12 7 170 -43 170 -53 0 -4 -10 -36 -21 -72 -27 -85 -37 -260 -18 -327 17
-63 86 -133 154 -157 28 -10 94 -20 148 -23 203 -12 327 48 364 177 14 47 15
91 9 313 l-7 258 108 -3 108 -3 10 -168 c9 -151 12 -170 30 -183 16 -12 57
-14 221 -12 262 4 243 -12 246 200 l3 160 105 0 105 0 2 -139 c2 -76 5 -148 8
-161 3 -12 20 -31 38 -42 28 -17 50 -20 167 -20 175 0 183 4 191 90 16 167
121 316 258 367 60 22 195 12 257 -20z m-3243 -233 c34 -11 51 -23 58 -41 12
-31 11 -255 -1 -307 -4 -21 -15 -43 -22 -47 -15 -10 -99 -28 -175 -38 l-53 -8
0 242 0 242 73 -14 c39 -7 94 -20 120 -29z m-1978 -23 c67 -30 98 -61 131
-134 26 -57 29 -72 29 -179 l0 -118 110 -101 c409 -379 776 -720 812 -756 47
-48 61 -93 44 -146 -17 -51 -52 -78 -107 -85 -62 -7 -99 14 -164 91 -28 33
-90 96 -138 140 -48 44 -165 155 -260 246 -422 401 -456 432 -477 425 -11 -3
-62 -8 -112 -11 -86 -5 -97 -3 -147 21 -59 29 -114 84 -144 143 -26 51 -47
136 -39 157 6 15 11 15 49 -5 24 -12 67 -37 96 -57 44 -28 59 -33 88 -29 57 9
82 32 99 89 19 65 19 118 0 145 -8 11 -43 34 -78 51 -35 16 -80 44 -101 62
-34 30 -36 34 -20 43 77 43 241 47 329 8z m3884 -575 c40 -21 61 -59 61 -108
0 -97 -100 -150 -181 -95 -121 81 -10 270 120 203z m305 -1 c119 -57 64 -239
-67 -222 -112 15 -142 158 -45 217 39 24 69 25 112 5z m-2435 -159 c45 -60 81
-112 81 -116 0 -32 -219 -290 -246 -290 -6 0 -50 23 -99 52 l-90 51 -60 -23
c-33 -12 -104 -38 -157 -57 l-98 -36 -92 83 c-145 131 -138 123 -105 111 55
-21 193 -8 313 29 150 46 271 118 394 236 41 40 76 71 77 70 1 -1 38 -50 82
-110z m-1525 -222 l136 -132 -36 -32 c-65 -56 -77 -58 -128 -17 -63 52 -154
146 -183 189 -21 31 -23 40 -13 60 15 29 61 69 76 66 6 -2 73 -62 148 -134z
m2366 -269 l0 -245 118 0 117 0 0 -45 0 -45 -175 0 -175 0 3 290 3 290 54 0
55 0 0 -245z m892 -30 c60 -148 111 -278 114 -287 5 -16 -2 -18 -53 -18 l-58
0 -24 65 -23 66 -130 -3 -130 -3 -23 -60 -22 -60 -56 -3 -57 -3 21 53 c12 29
62 156 111 283 49 126 92 234 95 238 3 4 32 7 66 5 l61 -3 108 -270z m603 75
c77 -110 145 -208 152 -218 10 -14 12 27 13 201 l0 217 50 0 50 0 0 -290 0
-290 -59 0 -59 0 -149 211 -148 210 -3 -210 -2 -211 -55 0 -55 0 0 290 0 290
63 0 62 0 140 -200z m896 175 c110 -39 172 -133 173 -265 1 -64 -3 -84 -29
-135 -60 -120 -142 -155 -362 -155 l-143 0 0 291 0 292 158 -6 c107 -4 172
-10 203 -22z m806 -260 c62 -154 112 -283 112 -287 1 -5 -25 -8 -57 -8 l-57 0
-24 65 -23 66 -130 -3 -130 -3 -23 -60 -22 -60 -55 -3 -56 -3 105 268 c58 147
109 278 114 291 8 21 14 23 71 20 l63 -3 112 -280z m486 273 c3 -7 39 -94 80
-193 41 -99 78 -191 82 -205 l8 -25 10 30 c11 36 120 314 144 368 l16 37 72 0
71 0 12 -242 c7 -134 12 -264 12 -290 l0 -48 -50 0 c-48 0 -50 1 -51 28 0 15
-6 109 -12 210 l-12 184 -89 -211 -90 -211 -35 0 c-34 0 -37 3 -57 53 -12 28
-53 124 -90 212 l-69 159 -12 -184 c-6 -102 -12 -197 -12 -212 -1 -27 -3 -28
-51 -28 l-50 0 0 38 c0 20 7 147 15 282 8 135 15 248 15 253 0 13 137 8 143
-5z m857 -278 l0 -290 -55 0 -55 0 0 290 0 290 55 0 55 0 0 -290z m497 76 c73
-115 134 -211 136 -212 1 -1 0 94 -1 212 l-4 214 56 0 56 0 0 -290 0 -291 -66
3 -67 3 -118 185 c-66 102 -121 193 -125 203 -16 50 -22 -3 -21 -188 l2 -205
-52 0 -53 0 0 290 0 291 61 -3 62 -3 134 -209z"/>
<path d="M1856 5804 c-24 -23 -24 -608 0 -642 l15 -22 474 0 c459 0 475 1 485
19 6 12 10 133 10 324 0 282 -1 305 -18 320 -17 15 -65 17 -485 17 -410 0
-467 -2 -481 -16z"/>
<path d="M6252 5570 c-39 -24 -72 -75 -72 -111 0 -37 32 -73 92 -103 109 -54
178 -25 178 76 0 58 -22 110 -58 138 -32 26 -97 26 -140 0z"/>
<path d="M4519 4327 l-46 -122 90 -3 c49 -1 91 -1 93 1 3 2 -83 237 -89 244
-1 0 -23 -54 -48 -120z"/>
<path d="M5990 4265 l0 -195 63 0 c79 1 142 15 180 42 66 47 88 173 45 258
-34 66 -86 90 -200 90 l-88 0 0 -195z"/>
<path d="M6857 4427 c-3 -12 -23 -68 -45 -124 l-39 -103 93 0 c52 0 94 1 94 3
0 2 -18 51 -40 110 -22 58 -40 110 -40 116 0 21 -18 20 -23 -2z"/>
</g>
</svg>
